<mxfile host="www.draw.io" modified="2019-11-29T11:55:42.961Z" agent="Mozilla/5.0 (Windows NT 10.0; Win64; x64) AppleWebKit/537.36 (KHTML, like Gecko) Chrome/78.0.3904.108 Safari/537.36" etag="9vJAYjWExFwiRoal6_0d" version="12.3.3" type="github" pages="1">
  <diagram id="-zOznc9YO3qfhNgqn0We" name="Page-1">
    <mxGraphModel dx="2024" dy="1174" grid="1" gridSize="10" guides="1" tooltips="1" connect="1" arrows="1" fold="1" page="1" pageScale="1" pageWidth="850" pageHeight="1100" math="0" shadow="0">
      <root>
        <mxCell id="0"/>
        <mxCell id="1" parent="0"/>
        <mxCell id="yqrmD4MauSipaye6TM8u-4" value="1 (1,*)" style="edgeStyle=orthogonalEdgeStyle;rounded=0;orthogonalLoop=1;jettySize=auto;html=1;exitX=0.5;exitY=1;exitDx=0;exitDy=0;entryX=0.5;entryY=0;entryDx=0;entryDy=0;" parent="1" edge="1">
          <mxGeometry relative="1" as="geometry">
            <mxPoint x="-187" y="140" as="sourcePoint"/>
            <mxPoint x="-187" y="180" as="targetPoint"/>
          </mxGeometry>
        </mxCell>
        <mxCell id="yqrmD4MauSipaye6TM8u-1" value="Semester Ordner" style="rounded=0;whiteSpace=wrap;html=1;" parent="1" vertex="1">
          <mxGeometry x="-246" y="80" width="120" height="60" as="geometry"/>
        </mxCell>
        <mxCell id="yqrmD4MauSipaye6TM8u-8" value="1 (1,*)" style="edgeStyle=orthogonalEdgeStyle;rounded=0;orthogonalLoop=1;jettySize=auto;html=1;exitX=0.5;exitY=1;exitDx=0;exitDy=0;entryX=0.5;entryY=0;entryDx=0;entryDy=0;" parent="1" source="yqrmD4MauSipaye6TM8u-2" target="yqrmD4MauSipaye6TM8u-7" edge="1">
          <mxGeometry relative="1" as="geometry"/>
        </mxCell>
        <mxCell id="yqrmD4MauSipaye6TM8u-2" value="Kurs Ordner" style="rounded=0;whiteSpace=wrap;html=1;" parent="1" vertex="1">
          <mxGeometry x="-246" y="270" width="120" height="60" as="geometry"/>
        </mxCell>
        <mxCell id="yqrmD4MauSipaye6TM8u-5" value="N (1,1)" style="edgeStyle=orthogonalEdgeStyle;rounded=0;orthogonalLoop=1;jettySize=auto;html=1;exitX=0.5;exitY=1;exitDx=0;exitDy=0;entryX=0.5;entryY=0;entryDx=0;entryDy=0;" parent="1" source="yqrmD4MauSipaye6TM8u-3" target="yqrmD4MauSipaye6TM8u-2" edge="1">
          <mxGeometry relative="1" as="geometry"/>
        </mxCell>
        <mxCell id="yqrmD4MauSipaye6TM8u-3" value="enthält" style="rhombus;whiteSpace=wrap;html=1;" parent="1" vertex="1">
          <mxGeometry x="-226" y="180" width="80" height="50" as="geometry"/>
        </mxCell>
        <mxCell id="yqrmD4MauSipaye6TM8u-39" value="1 (1,*)" style="edgeStyle=orthogonalEdgeStyle;rounded=0;orthogonalLoop=1;jettySize=auto;html=1;exitX=0.5;exitY=1;exitDx=0;exitDy=0;entryX=0.5;entryY=0;entryDx=0;entryDy=0;" parent="1" source="yqrmD4MauSipaye6TM8u-6" target="yqrmD4MauSipaye6TM8u-38" edge="1">
          <mxGeometry relative="1" as="geometry"/>
        </mxCell>
        <mxCell id="yqrmD4MauSipaye6TM8u-6" value="Abschnitt" style="rounded=0;whiteSpace=wrap;html=1;" parent="1" vertex="1">
          <mxGeometry x="-246" y="440" width="120" height="50" as="geometry"/>
        </mxCell>
        <mxCell id="yqrmD4MauSipaye6TM8u-9" value="N (1,1)" style="edgeStyle=orthogonalEdgeStyle;rounded=0;orthogonalLoop=1;jettySize=auto;html=1;exitX=0.5;exitY=1;exitDx=0;exitDy=0;entryX=0.5;entryY=0;entryDx=0;entryDy=0;" parent="1" source="yqrmD4MauSipaye6TM8u-7" target="yqrmD4MauSipaye6TM8u-6" edge="1">
          <mxGeometry relative="1" as="geometry"/>
        </mxCell>
        <mxCell id="yqrmD4MauSipaye6TM8u-7" value="enthält" style="rhombus;whiteSpace=wrap;html=1;" parent="1" vertex="1">
          <mxGeometry x="-226" y="360" width="80" height="55" as="geometry"/>
        </mxCell>
        <mxCell id="yqrmD4MauSipaye6TM8u-10" value="Mitschrift" style="rounded=0;whiteSpace=wrap;html=1;" parent="1" vertex="1">
          <mxGeometry x="74" y="535" width="120" height="60" as="geometry"/>
        </mxCell>
        <mxCell id="yqrmD4MauSipaye6TM8u-11" value="Veranstalltung" style="rounded=0;whiteSpace=wrap;html=1;" parent="1" vertex="1">
          <mxGeometry x="-246" y="620" width="120" height="60" as="geometry"/>
        </mxCell>
        <mxCell id="yqrmD4MauSipaye6TM8u-12" value="Anhang" style="rounded=0;whiteSpace=wrap;html=1;" parent="1" vertex="1">
          <mxGeometry x="100" y="710" width="120" height="60" as="geometry"/>
        </mxCell>
        <mxCell id="yqrmD4MauSipaye6TM8u-18" value="1&lt;br&gt;(0,*)" style="endArrow=none;html=1;entryX=1;entryY=0.5;entryDx=0;entryDy=0;exitX=0;exitY=0.5;exitDx=0;exitDy=0;" parent="1" source="yqrmD4MauSipaye6TM8u-19" target="yqrmD4MauSipaye6TM8u-11" edge="1">
          <mxGeometry width="50" height="50" relative="1" as="geometry">
            <mxPoint x="-246" y="780" as="sourcePoint"/>
            <mxPoint x="-196" y="730" as="targetPoint"/>
            <mxPoint as="offset"/>
          </mxGeometry>
        </mxCell>
        <mxCell id="yqrmD4MauSipaye6TM8u-19" value="enthält" style="rhombus;whiteSpace=wrap;html=1;" parent="1" vertex="1">
          <mxGeometry x="-76" y="680" width="80" height="50" as="geometry"/>
        </mxCell>
        <mxCell id="yqrmD4MauSipaye6TM8u-20" value="N&lt;br&gt;(1,1)" style="endArrow=none;html=1;entryX=1;entryY=0.5;entryDx=0;entryDy=0;exitX=0;exitY=0.5;exitDx=0;exitDy=0;" parent="1" source="yqrmD4MauSipaye6TM8u-12" target="yqrmD4MauSipaye6TM8u-19" edge="1">
          <mxGeometry width="50" height="50" relative="1" as="geometry">
            <mxPoint x="100" y="770" as="sourcePoint"/>
            <mxPoint x="30" y="745" as="targetPoint"/>
          </mxGeometry>
        </mxCell>
        <mxCell id="yqrmD4MauSipaye6TM8u-23" value="RaumNr" style="ellipse;whiteSpace=wrap;html=1;" parent="1" vertex="1">
          <mxGeometry x="-481.5" y="740" width="80" height="40" as="geometry"/>
        </mxCell>
        <mxCell id="yqrmD4MauSipaye6TM8u-25" value="" style="endArrow=none;html=1;entryX=1;entryY=0.5;entryDx=0;entryDy=0;exitX=0;exitY=0.5;exitDx=0;exitDy=0;" parent="1" source="yqrmD4MauSipaye6TM8u-11" target="yqrmD4MauSipaye6TM8u-23" edge="1">
          <mxGeometry width="50" height="50" relative="1" as="geometry">
            <mxPoint x="-396" y="800" as="sourcePoint"/>
            <mxPoint x="-346" y="750" as="targetPoint"/>
          </mxGeometry>
        </mxCell>
        <mxCell id="yqrmD4MauSipaye6TM8u-26" value="Zeitpunkt" style="ellipse;whiteSpace=wrap;html=1;" parent="1" vertex="1">
          <mxGeometry x="-481" y="800" width="80" height="40" as="geometry"/>
        </mxCell>
        <mxCell id="yqrmD4MauSipaye6TM8u-27" value="" style="endArrow=none;html=1;exitX=1;exitY=0.5;exitDx=0;exitDy=0;entryX=0;entryY=0.5;entryDx=0;entryDy=0;" parent="1" source="yqrmD4MauSipaye6TM8u-26" target="yqrmD4MauSipaye6TM8u-11" edge="1">
          <mxGeometry width="50" height="50" relative="1" as="geometry">
            <mxPoint x="-396" y="800" as="sourcePoint"/>
            <mxPoint x="-346" y="750" as="targetPoint"/>
          </mxGeometry>
        </mxCell>
        <mxCell id="yqrmD4MauSipaye6TM8u-28" value="Dozent" style="ellipse;whiteSpace=wrap;html=1;" parent="1" vertex="1">
          <mxGeometry x="-476" y="860" width="70" height="50" as="geometry"/>
        </mxCell>
        <mxCell id="yqrmD4MauSipaye6TM8u-29" value="" style="endArrow=none;html=1;exitX=1;exitY=0.5;exitDx=0;exitDy=0;entryX=0;entryY=0.5;entryDx=0;entryDy=0;" parent="1" source="yqrmD4MauSipaye6TM8u-28" target="yqrmD4MauSipaye6TM8u-11" edge="1">
          <mxGeometry width="50" height="50" relative="1" as="geometry">
            <mxPoint x="-326" y="690" as="sourcePoint"/>
            <mxPoint x="-246" y="610" as="targetPoint"/>
          </mxGeometry>
        </mxCell>
        <mxCell id="yqrmD4MauSipaye6TM8u-30" value="&lt;u&gt;VeranstalltungsID&lt;/u&gt;" style="ellipse;whiteSpace=wrap;html=1;" parent="1" vertex="1">
          <mxGeometry x="-491.5" y="530" width="110" height="40" as="geometry"/>
        </mxCell>
        <mxCell id="yqrmD4MauSipaye6TM8u-31" value="" style="endArrow=none;html=1;entryX=1;entryY=0.5;entryDx=0;entryDy=0;exitX=0;exitY=0.5;exitDx=0;exitDy=0;" parent="1" source="yqrmD4MauSipaye6TM8u-11" target="yqrmD4MauSipaye6TM8u-30" edge="1">
          <mxGeometry width="50" height="50" relative="1" as="geometry">
            <mxPoint x="-446" y="800" as="sourcePoint"/>
            <mxPoint x="-396" y="750" as="targetPoint"/>
          </mxGeometry>
        </mxCell>
        <mxCell id="yqrmD4MauSipaye6TM8u-32" value="&lt;u&gt;SemesterID&lt;/u&gt;" style="ellipse;whiteSpace=wrap;html=1;" parent="1" vertex="1">
          <mxGeometry x="-448" y="50" width="84" height="35" as="geometry"/>
        </mxCell>
        <mxCell id="yqrmD4MauSipaye6TM8u-33" value="" style="endArrow=none;html=1;exitX=1;exitY=0.5;exitDx=0;exitDy=0;entryX=0;entryY=0.5;entryDx=0;entryDy=0;" parent="1" source="yqrmD4MauSipaye6TM8u-32" target="yqrmD4MauSipaye6TM8u-1" edge="1">
          <mxGeometry width="50" height="50" relative="1" as="geometry">
            <mxPoint x="-386" y="310" as="sourcePoint"/>
            <mxPoint x="-336" y="260" as="targetPoint"/>
          </mxGeometry>
        </mxCell>
        <mxCell id="yqrmD4MauSipaye6TM8u-34" value="Titel" style="ellipse;whiteSpace=wrap;html=1;" parent="1" vertex="1">
          <mxGeometry x="-455" y="300" width="65" height="40" as="geometry"/>
        </mxCell>
        <mxCell id="yqrmD4MauSipaye6TM8u-35" value="" style="endArrow=none;html=1;entryX=1;entryY=0.5;entryDx=0;entryDy=0;exitX=0;exitY=0.5;exitDx=0;exitDy=0;" parent="1" source="yqrmD4MauSipaye6TM8u-2" target="yqrmD4MauSipaye6TM8u-34" edge="1">
          <mxGeometry width="50" height="50" relative="1" as="geometry">
            <mxPoint x="-361" y="350" as="sourcePoint"/>
            <mxPoint x="-311" y="300" as="targetPoint"/>
          </mxGeometry>
        </mxCell>
        <mxCell id="yqrmD4MauSipaye6TM8u-36" value="&lt;u&gt;KursID&lt;/u&gt;" style="ellipse;whiteSpace=wrap;html=1;" parent="1" vertex="1">
          <mxGeometry x="-461.5" y="220" width="80" height="43" as="geometry"/>
        </mxCell>
        <mxCell id="yqrmD4MauSipaye6TM8u-37" value="" style="endArrow=none;html=1;exitX=1;exitY=0.5;exitDx=0;exitDy=0;entryX=0;entryY=0.5;entryDx=0;entryDy=0;" parent="1" source="yqrmD4MauSipaye6TM8u-36" target="yqrmD4MauSipaye6TM8u-2" edge="1">
          <mxGeometry width="50" height="50" relative="1" as="geometry">
            <mxPoint x="-356.5" y="350" as="sourcePoint"/>
            <mxPoint x="-306.5" y="300" as="targetPoint"/>
          </mxGeometry>
        </mxCell>
        <mxCell id="yqrmD4MauSipaye6TM8u-40" value="N (1,1)" style="edgeStyle=orthogonalEdgeStyle;rounded=0;orthogonalLoop=1;jettySize=auto;html=1;exitX=0.5;exitY=1;exitDx=0;exitDy=0;entryX=0.5;entryY=0;entryDx=0;entryDy=0;" parent="1" source="yqrmD4MauSipaye6TM8u-38" target="yqrmD4MauSipaye6TM8u-11" edge="1">
          <mxGeometry relative="1" as="geometry"/>
        </mxCell>
        <mxCell id="yqrmD4MauSipaye6TM8u-38" value="enthält" style="rhombus;whiteSpace=wrap;html=1;" parent="1" vertex="1">
          <mxGeometry x="-226" y="530" width="80" height="50" as="geometry"/>
        </mxCell>
        <mxCell id="yqrmD4MauSipaye6TM8u-41" value="Notiz" style="rounded=0;whiteSpace=wrap;html=1;" parent="1" vertex="1">
          <mxGeometry x="74" y="270" width="120" height="60" as="geometry"/>
        </mxCell>
        <mxCell id="yqrmD4MauSipaye6TM8u-42" value="&lt;span style=&quot;text-align: left ; white-space: nowrap&quot;&gt;◀︎&lt;/span&gt;bezogen auf" style="rhombus;whiteSpace=wrap;html=1;" parent="1" vertex="1">
          <mxGeometry x="-81" y="260" width="101" height="70" as="geometry"/>
        </mxCell>
        <mxCell id="yqrmD4MauSipaye6TM8u-43" value="1&lt;br&gt;(1,*)" style="endArrow=none;html=1;exitX=1;exitY=0.5;exitDx=0;exitDy=0;entryX=0;entryY=0.5;entryDx=0;entryDy=0;" parent="1" source="yqrmD4MauSipaye6TM8u-2" target="yqrmD4MauSipaye6TM8u-42" edge="1">
          <mxGeometry width="50" height="50" relative="1" as="geometry">
            <mxPoint x="-86" y="430" as="sourcePoint"/>
            <mxPoint x="-36" y="380" as="targetPoint"/>
          </mxGeometry>
        </mxCell>
        <mxCell id="yqrmD4MauSipaye6TM8u-44" value="N&lt;br&gt;(1,1)" style="endArrow=none;html=1;exitX=1;exitY=0.5;exitDx=0;exitDy=0;entryX=0;entryY=0.5;entryDx=0;entryDy=0;" parent="1" source="yqrmD4MauSipaye6TM8u-42" target="yqrmD4MauSipaye6TM8u-41" edge="1">
          <mxGeometry width="50" height="50" relative="1" as="geometry">
            <mxPoint x="-6" y="415" as="sourcePoint"/>
            <mxPoint x="44" y="365" as="targetPoint"/>
          </mxGeometry>
        </mxCell>
        <mxCell id="xab8R1kc0-YQB8v2l7pW-5" value="enthält" style="rhombus;whiteSpace=wrap;html=1;" parent="1" vertex="1">
          <mxGeometry x="294" y="535" width="80" height="60" as="geometry"/>
        </mxCell>
        <mxCell id="xab8R1kc0-YQB8v2l7pW-8" value="Titel" style="ellipse;whiteSpace=wrap;html=1;" parent="1" vertex="1">
          <mxGeometry x="94" y="445" width="80" height="40" as="geometry"/>
        </mxCell>
        <mxCell id="xab8R1kc0-YQB8v2l7pW-9" value="&lt;u&gt;MitschriftID&lt;/u&gt;" style="ellipse;whiteSpace=wrap;html=1;" parent="1" vertex="1">
          <mxGeometry x="-16" y="450" width="80" height="50" as="geometry"/>
        </mxCell>
        <mxCell id="xab8R1kc0-YQB8v2l7pW-10" value="" style="endArrow=none;html=1;entryX=0.5;entryY=0;entryDx=0;entryDy=0;exitX=1;exitY=1;exitDx=0;exitDy=0;" parent="1" source="xab8R1kc0-YQB8v2l7pW-9" target="yqrmD4MauSipaye6TM8u-10" edge="1">
          <mxGeometry width="50" height="50" relative="1" as="geometry">
            <mxPoint x="-446" y="785" as="sourcePoint"/>
            <mxPoint x="-396" y="735" as="targetPoint"/>
          </mxGeometry>
        </mxCell>
        <mxCell id="xab8R1kc0-YQB8v2l7pW-11" value="" style="endArrow=none;html=1;exitX=0.5;exitY=1;exitDx=0;exitDy=0;entryX=0.5;entryY=0;entryDx=0;entryDy=0;" parent="1" source="xab8R1kc0-YQB8v2l7pW-8" target="yqrmD4MauSipaye6TM8u-10" edge="1">
          <mxGeometry width="50" height="50" relative="1" as="geometry">
            <mxPoint x="-446" y="785" as="sourcePoint"/>
            <mxPoint x="-396" y="735" as="targetPoint"/>
          </mxGeometry>
        </mxCell>
        <mxCell id="xab8R1kc0-YQB8v2l7pW-12" value="&lt;u&gt;AnhangID&lt;/u&gt;" style="ellipse;whiteSpace=wrap;html=1;" parent="1" vertex="1">
          <mxGeometry x="-70.5" y="820" width="100" height="50" as="geometry"/>
        </mxCell>
        <mxCell id="xab8R1kc0-YQB8v2l7pW-14" value="" style="endArrow=none;html=1;exitX=0.5;exitY=0;exitDx=0;exitDy=0;entryX=0.5;entryY=1;entryDx=0;entryDy=0;" parent="1" source="xab8R1kc0-YQB8v2l7pW-12" target="yqrmD4MauSipaye6TM8u-12" edge="1">
          <mxGeometry width="50" height="50" relative="1" as="geometry">
            <mxPoint x="94.5" y="880" as="sourcePoint"/>
            <mxPoint x="144.5" y="830" as="targetPoint"/>
          </mxGeometry>
        </mxCell>
        <mxCell id="xab8R1kc0-YQB8v2l7pW-15" value="Zeile" style="ellipse;whiteSpace=wrap;html=1;" parent="1" vertex="1">
          <mxGeometry x="394" y="544.5" width="90" height="41" as="geometry"/>
        </mxCell>
        <mxCell id="xab8R1kc0-YQB8v2l7pW-19" value="" style="endArrow=none;html=1;entryX=0;entryY=0.5;entryDx=0;entryDy=0;exitX=1;exitY=0.5;exitDx=0;exitDy=0;" parent="1" source="xab8R1kc0-YQB8v2l7pW-5" target="xab8R1kc0-YQB8v2l7pW-15" edge="1">
          <mxGeometry width="50" height="50" relative="1" as="geometry">
            <mxPoint x="-306" y="985" as="sourcePoint"/>
            <mxPoint x="-256" y="935" as="targetPoint"/>
          </mxGeometry>
        </mxCell>
        <mxCell id="xab8R1kc0-YQB8v2l7pW-20" value="1&lt;br&gt;(0,*)" style="endArrow=none;html=1;exitX=1.001;exitY=-0.001;exitDx=0;exitDy=0;exitPerimeter=0;entryX=0.5;entryY=0;entryDx=0;entryDy=0;" parent="1" source="yqrmD4MauSipaye6TM8u-10" target="xab8R1kc0-YQB8v2l7pW-5" edge="1">
          <mxGeometry width="50" height="50" relative="1" as="geometry">
            <mxPoint x="214" y="535" as="sourcePoint"/>
            <mxPoint x="264" y="485" as="targetPoint"/>
          </mxGeometry>
        </mxCell>
        <mxCell id="xab8R1kc0-YQB8v2l7pW-21" value="N&lt;br&gt;(1,1)" style="endArrow=none;html=1;exitX=1.004;exitY=0.992;exitDx=0;exitDy=0;exitPerimeter=0;entryX=0.5;entryY=1;entryDx=0;entryDy=0;" parent="1" source="yqrmD4MauSipaye6TM8u-10" target="xab8R1kc0-YQB8v2l7pW-5" edge="1">
          <mxGeometry width="50" height="50" relative="1" as="geometry">
            <mxPoint x="314" y="675" as="sourcePoint"/>
            <mxPoint x="364" y="625" as="targetPoint"/>
          </mxGeometry>
        </mxCell>
        <mxCell id="xab8R1kc0-YQB8v2l7pW-22" value="&lt;u&gt;NotizID&lt;/u&gt;" style="ellipse;whiteSpace=wrap;html=1;" parent="1" vertex="1">
          <mxGeometry x="254" y="220" width="80" height="40" as="geometry"/>
        </mxCell>
        <mxCell id="xab8R1kc0-YQB8v2l7pW-23" value="" style="endArrow=none;html=1;exitX=1;exitY=0.5;exitDx=0;exitDy=0;entryX=0;entryY=0.5;entryDx=0;entryDy=0;" parent="1" source="yqrmD4MauSipaye6TM8u-41" target="xab8R1kc0-YQB8v2l7pW-22" edge="1">
          <mxGeometry width="50" height="50" relative="1" as="geometry">
            <mxPoint x="219" y="350" as="sourcePoint"/>
            <mxPoint x="269" y="300" as="targetPoint"/>
          </mxGeometry>
        </mxCell>
        <mxCell id="xab8R1kc0-YQB8v2l7pW-24" value="Fälligkeits Datum" style="ellipse;whiteSpace=wrap;html=1;" parent="1" vertex="1">
          <mxGeometry x="274" y="280" width="80" height="40" as="geometry"/>
        </mxCell>
        <mxCell id="xab8R1kc0-YQB8v2l7pW-25" value="" style="endArrow=none;html=1;entryX=0;entryY=0.5;entryDx=0;entryDy=0;exitX=1;exitY=0.5;exitDx=0;exitDy=0;" parent="1" source="yqrmD4MauSipaye6TM8u-41" target="xab8R1kc0-YQB8v2l7pW-24" edge="1">
          <mxGeometry width="50" height="50" relative="1" as="geometry">
            <mxPoint x="164" y="300" as="sourcePoint"/>
            <mxPoint x="254" y="295" as="targetPoint"/>
          </mxGeometry>
        </mxCell>
        <mxCell id="xab8R1kc0-YQB8v2l7pW-26" value="Inhalt" style="ellipse;whiteSpace=wrap;html=1;" parent="1" vertex="1">
          <mxGeometry x="244" y="335" width="70" height="45" as="geometry"/>
        </mxCell>
        <mxCell id="xab8R1kc0-YQB8v2l7pW-27" value="" style="endArrow=none;html=1;entryX=0;entryY=0.5;entryDx=0;entryDy=0;exitX=1;exitY=0.5;exitDx=0;exitDy=0;" parent="1" source="yqrmD4MauSipaye6TM8u-41" target="xab8R1kc0-YQB8v2l7pW-26" edge="1">
          <mxGeometry width="50" height="50" relative="1" as="geometry">
            <mxPoint x="134" y="376" as="sourcePoint"/>
            <mxPoint x="184" y="326" as="targetPoint"/>
          </mxGeometry>
        </mxCell>
        <mxCell id="xab8R1kc0-YQB8v2l7pW-28" value="Inhalt" style="ellipse;whiteSpace=wrap;html=1;" parent="1" vertex="1">
          <mxGeometry x="204" y="440" width="70" height="50" as="geometry"/>
        </mxCell>
        <mxCell id="xab8R1kc0-YQB8v2l7pW-29" value="" style="endArrow=none;html=1;entryX=0;entryY=1;entryDx=0;entryDy=0;" parent="1" target="xab8R1kc0-YQB8v2l7pW-28" edge="1">
          <mxGeometry width="50" height="50" relative="1" as="geometry">
            <mxPoint x="134" y="535" as="sourcePoint"/>
            <mxPoint x="194" y="485" as="targetPoint"/>
          </mxGeometry>
        </mxCell>
        <mxCell id="xab8R1kc0-YQB8v2l7pW-30" value="Inhalt" style="ellipse;whiteSpace=wrap;html=1;" parent="1" vertex="1">
          <mxGeometry x="146" y="870" width="90" height="50" as="geometry"/>
        </mxCell>
        <mxCell id="xab8R1kc0-YQB8v2l7pW-31" value="" style="endArrow=none;html=1;exitX=0.5;exitY=1;exitDx=0;exitDy=0;entryX=0.5;entryY=0;entryDx=0;entryDy=0;" parent="1" source="yqrmD4MauSipaye6TM8u-12" target="xab8R1kc0-YQB8v2l7pW-30" edge="1">
          <mxGeometry width="50" height="50" relative="1" as="geometry">
            <mxPoint x="240" y="830" as="sourcePoint"/>
            <mxPoint x="290" y="780" as="targetPoint"/>
          </mxGeometry>
        </mxCell>
        <mxCell id="xab8R1kc0-YQB8v2l7pW-34" value="enthält" style="rhombus;whiteSpace=wrap;html=1;" parent="1" vertex="1">
          <mxGeometry x="-76" y="585.5" width="80" height="40" as="geometry"/>
        </mxCell>
        <mxCell id="xab8R1kc0-YQB8v2l7pW-35" value="" style="endArrow=none;html=1;entryX=0;entryY=0.5;entryDx=0;entryDy=0;exitX=1;exitY=0.5;exitDx=0;exitDy=0;" parent="1" source="yqrmD4MauSipaye6TM8u-11" target="xab8R1kc0-YQB8v2l7pW-34" edge="1">
          <mxGeometry width="50" height="50" relative="1" as="geometry">
            <mxPoint x="-116" y="660" as="sourcePoint"/>
            <mxPoint x="-66" y="610" as="targetPoint"/>
          </mxGeometry>
        </mxCell>
        <mxCell id="xab8R1kc0-YQB8v2l7pW-37" value="1&lt;br&gt;(1,1)" style="text;html=1;resizable=0;points=[];align=center;verticalAlign=middle;labelBackgroundColor=#ffffff;" parent="xab8R1kc0-YQB8v2l7pW-35" vertex="1" connectable="0">
          <mxGeometry x="0.3346" y="-4" relative="1" as="geometry">
            <mxPoint as="offset"/>
          </mxGeometry>
        </mxCell>
        <mxCell id="xab8R1kc0-YQB8v2l7pW-36" value="1&lt;br&gt;(0,1)" style="endArrow=none;html=1;entryX=0;entryY=0.5;entryDx=0;entryDy=0;exitX=1;exitY=0.5;exitDx=0;exitDy=0;" parent="1" source="xab8R1kc0-YQB8v2l7pW-34" target="yqrmD4MauSipaye6TM8u-10" edge="1">
          <mxGeometry width="50" height="50" relative="1" as="geometry">
            <mxPoint x="29" y="605.5" as="sourcePoint"/>
            <mxPoint x="14" y="520" as="targetPoint"/>
          </mxGeometry>
        </mxCell>
        <mxCell id="xab8R1kc0-YQB8v2l7pW-38" value="Quelle" style="text;html=1;resizable=0;points=[];autosize=1;align=left;verticalAlign=top;spacingTop=-4;" parent="1" vertex="1">
          <mxGeometry x="244" y="505" width="50" height="20" as="geometry"/>
        </mxCell>
        <mxCell id="xab8R1kc0-YQB8v2l7pW-39" value="Referenz" style="text;html=1;resizable=0;points=[];autosize=1;align=left;verticalAlign=top;spacingTop=-4;" parent="1" vertex="1">
          <mxGeometry x="239" y="607.5" width="60" height="20" as="geometry"/>
        </mxCell>
        <mxCell id="jnvQCNFVmyH9fAy6hpZg-3" value="Titel" style="ellipse;whiteSpace=wrap;html=1;" parent="1" vertex="1">
          <mxGeometry x="-466" y="460" width="76" height="40" as="geometry"/>
        </mxCell>
        <mxCell id="jnvQCNFVmyH9fAy6hpZg-4" value="&lt;u&gt;AbschnittID&lt;/u&gt;" style="ellipse;whiteSpace=wrap;html=1;" parent="1" vertex="1">
          <mxGeometry x="-481.5" y="404" width="96" height="36" as="geometry"/>
        </mxCell>
        <mxCell id="jnvQCNFVmyH9fAy6hpZg-5" value="" style="endArrow=none;html=1;entryX=0;entryY=0.5;entryDx=0;entryDy=0;exitX=1;exitY=0.5;exitDx=0;exitDy=0;" parent="1" source="jnvQCNFVmyH9fAy6hpZg-4" target="yqrmD4MauSipaye6TM8u-6" edge="1">
          <mxGeometry width="50" height="50" relative="1" as="geometry">
            <mxPoint x="-530" y="960" as="sourcePoint"/>
            <mxPoint x="-480" y="910" as="targetPoint"/>
          </mxGeometry>
        </mxCell>
        <mxCell id="jnvQCNFVmyH9fAy6hpZg-6" value="" style="endArrow=none;html=1;entryX=0;entryY=0.5;entryDx=0;entryDy=0;exitX=1;exitY=0.5;exitDx=0;exitDy=0;" parent="1" source="jnvQCNFVmyH9fAy6hpZg-3" target="yqrmD4MauSipaye6TM8u-6" edge="1">
          <mxGeometry width="50" height="50" relative="1" as="geometry">
            <mxPoint x="-530" y="960" as="sourcePoint"/>
            <mxPoint x="-480" y="910" as="targetPoint"/>
          </mxGeometry>
        </mxCell>
        <mxCell id="BPR8hkR0wzoA9qI3Kvlo-1" value="Titel" style="ellipse;whiteSpace=wrap;html=1;" parent="1" vertex="1">
          <mxGeometry x="265" y="820" width="91" height="50" as="geometry"/>
        </mxCell>
        <mxCell id="BPR8hkR0wzoA9qI3Kvlo-2" value="" style="endArrow=none;html=1;exitX=0;exitY=0;exitDx=0;exitDy=0;entryX=0.5;entryY=1;entryDx=0;entryDy=0;" parent="1" source="BPR8hkR0wzoA9qI3Kvlo-1" target="yqrmD4MauSipaye6TM8u-12" edge="1">
          <mxGeometry width="50" height="50" relative="1" as="geometry">
            <mxPoint x="285.5" y="775" as="sourcePoint"/>
            <mxPoint x="335.5" y="725" as="targetPoint"/>
          </mxGeometry>
        </mxCell>
        <mxCell id="GA8jaOnbXtI_u-ycInlm-1" value="VeranstalltungsNr" style="ellipse;whiteSpace=wrap;html=1;" parent="1" vertex="1">
          <mxGeometry x="-490" y="587.5" width="107" height="40" as="geometry"/>
        </mxCell>
        <mxCell id="GA8jaOnbXtI_u-ycInlm-2" value="" style="endArrow=none;html=1;entryX=0;entryY=0.5;entryDx=0;entryDy=0;exitX=1;exitY=0.5;exitDx=0;exitDy=0;" parent="1" source="GA8jaOnbXtI_u-ycInlm-1" target="yqrmD4MauSipaye6TM8u-11" edge="1">
          <mxGeometry width="50" height="50" relative="1" as="geometry">
            <mxPoint x="-510" y="990" as="sourcePoint"/>
            <mxPoint x="-460" y="940" as="targetPoint"/>
          </mxGeometry>
        </mxCell>
        <mxCell id="GA8jaOnbXtI_u-ycInlm-3" value="AnhangPosition" style="ellipse;whiteSpace=wrap;html=1;" parent="1" vertex="1">
          <mxGeometry x="29.5" y="865" width="91" height="55" as="geometry"/>
        </mxCell>
        <mxCell id="GA8jaOnbXtI_u-ycInlm-4" value="" style="endArrow=none;html=1;exitX=0.5;exitY=1;exitDx=0;exitDy=0;entryX=0.5;entryY=0;entryDx=0;entryDy=0;" parent="1" source="yqrmD4MauSipaye6TM8u-12" target="GA8jaOnbXtI_u-ycInlm-3" edge="1">
          <mxGeometry width="50" height="50" relative="1" as="geometry">
            <mxPoint x="20" y="780" as="sourcePoint"/>
            <mxPoint x="-460" y="940" as="targetPoint"/>
          </mxGeometry>
        </mxCell>
        <mxCell id="GA8jaOnbXtI_u-ycInlm-5" value="SemesterNr" style="ellipse;whiteSpace=wrap;html=1;" parent="1" vertex="1">
          <mxGeometry x="-461.5" y="110" width="91" height="38" as="geometry"/>
        </mxCell>
        <mxCell id="GA8jaOnbXtI_u-ycInlm-6" value="" style="endArrow=none;html=1;exitX=1;exitY=0.5;exitDx=0;exitDy=0;entryX=0;entryY=0.5;entryDx=0;entryDy=0;" parent="1" source="GA8jaOnbXtI_u-ycInlm-5" target="yqrmD4MauSipaye6TM8u-1" edge="1">
          <mxGeometry width="50" height="50" relative="1" as="geometry">
            <mxPoint x="-338.5" y="255" as="sourcePoint"/>
            <mxPoint x="-288.5" y="205" as="targetPoint"/>
          </mxGeometry>
        </mxCell>
        <mxCell id="SACCgcTnn3TQo95Is1xv-1" value="VeranstaltungsPosition" style="ellipse;whiteSpace=wrap;html=1;" vertex="1" parent="1">
          <mxGeometry x="-506" y="662" width="130" height="44" as="geometry"/>
        </mxCell>
        <mxCell id="SACCgcTnn3TQo95Is1xv-2" value="" style="endArrow=none;html=1;entryX=0;entryY=0.5;entryDx=0;entryDy=0;exitX=1;exitY=0.5;exitDx=0;exitDy=0;" edge="1" parent="1" source="SACCgcTnn3TQo95Is1xv-1" target="yqrmD4MauSipaye6TM8u-11">
          <mxGeometry width="50" height="50" relative="1" as="geometry">
            <mxPoint x="-520" y="990" as="sourcePoint"/>
            <mxPoint x="-470" y="940" as="targetPoint"/>
          </mxGeometry>
        </mxCell>
      </root>
    </mxGraphModel>
  </diagram>
</mxfile>
